<?xml version="1.0" standalone="no"?>
<!DOCTYPE svg PUBLIC "-//W3C//DTD SVG 20010904//EN"
 "http://www.w3.org/TR/2001/REC-SVG-20010904/DTD/svg10.dtd">
<svg version="1.0" xmlns="http://www.w3.org/2000/svg"
 width="300.000000pt" height="300.000000pt" viewBox="0 0 300.000000 300.000000"
 preserveAspectRatio="xMidYMid meet">
<metadata>
Created by potrace 1.11, written by Peter Selinger 2001-2013
</metadata>
<g transform="translate(0.000000,300.000000) scale(0.100000,-0.100000)"
fill="#000000" stroke="none">
<path d="M1484 2983 c-18 -18 -276 -289 -380 -399 -207 -218 -348 -366 -396
-415 -31 -33 -53 -60 -50 -62 16 -7 1667 0 1670 7 4 8 -21 35 -282 310 -83 87
-169 177 -191 201 -22 23 -107 113 -190 199 -82 87 -153 163 -156 168 -4 6
-14 3 -25 -9z m-13 -350 c4 -30 3 -107 -2 -121 -6 -16 -52 -20 -126 -13 -9 1
-13 22 -13 71 l0 70 70 0 c39 0 70 -3 71 -7z m197 -63 c0 -38 -2 -70 -6 -71
-30 -4 -132 -3 -133 1 -1 3 -3 35 -4 73 l-2 67 72 0 72 0 1 -70z m-197 -130
c1 -8 1 -92 0 -116 -1 -19 -7 -21 -71 -22 l-70 -1 0 68 c0 37 2 70 5 73 7 7
135 5 136 -2z m195 -67 l2 -71 -72 0 -73 1 1 66 c0 36 4 69 8 72 5 3 36 5 71
5 l62 -1 1 -72z"/>
<path d="M665 2018 c-3 -7 -4 -33 -2 -58 l3 -45 828 0 c541 0 830 3 835 10 4
5 7 30 7 55 l-1 45 -833 3 c-661 2 -834 0 -837 -10z"/>
<path d="M910 929 c0 -507 3 -919 7 -915 4 4 8 17 9 29 2 30 12 91 18 108 3 8
7 25 10 39 5 31 48 160 72 215 15 37 17 101 17 740 l0 700 -66 3 -67 3 0 -922z"/>
<path d="M1170 1193 l0 -657 67 73 67 73 1 572 c0 314 -1 577 -3 584 -3 8 -26
12 -68 12 l-64 0 0 -657z"/>
<path d="M1437 1843 c-2 -4 -5 -243 -5 -530 -1 -517 0 -523 19 -512 23 12 89
55 104 67 7 5 10 180 10 493 l0 484 -62 3 c-34 2 -63 -1 -66 -5z"/>
<path d="M1699 1848 c-1 -2 -3 -208 -3 -459 l-2 -457 63 24 c35 13 65 24 66
24 2 0 3 196 3 435 l0 435 -63 0 c-35 0 -64 -1 -64 -2z"/>
<path d="M1959 1848 c-1 -2 -2 -189 -3 -416 l-1 -414 30 7 c16 3 47 8 67 11
l37 6 0 404 1 404 -65 0 c-36 0 -66 -1 -66 -2z"/>
</g>
</svg>
